# xmcd
#
# Track frame offsets:
#	150
#	25507
#	50697
#
# Disc length: 1011 seconds
#
# Revision: 1
# Processed by: cddbd v1.5.1PL0 Copyright (c) Steve Scherf et al.
# Submitted via: CDex 1.50Beta5
#
DISCID=1b03f103
DTITLE=陣内大蔵 - 心の扉
DYEAR=1900
DGENRE=Pop
TTITLE0=心の扉
TTITLE1=抱きしめたい
TTITLE2=心の扉オリジナル・カラオケ
EXTD=
EXTT0=
EXTT1=
EXTT2=
PLAYORDER=
